<svg xmlns="http://www.w3.org/2000/svg" width="7936" height="417" viewBox="0 0 7936 417"><svg width="256" height="417" x="0" y="0" viewBox="0 0 256 417"><path fill="#343434" stroke-width="1" d="M 127.961 0 L 125.166 9.5 L 125.166 285.168 L 127.961 287.958 L 255.923 212.32 Z"/><path fill="#8c8c8c" stroke-width="1" d="M 127.962 0 L 0 212.32 L 127.962 287.959 L 127.962 154.158 Z"/><path fill="#3c3c3b" stroke-width="1" d="M 127.961 312.187 L 126.386 314.107 L 126.386 412.306 L 127.961 416.907 L 255.999 236.587 Z"/><path fill="#8c8c8c" stroke-width="1" d="M 127.962 416.905 L 127.962 312.185 L 0 236.585 Z"/><path fill="#141414" stroke-width="1" d="M 127.961 287.958 L 255.921 212.321 L 127.961 154.159 Z"/><path fill="#393939" stroke-width="1" d="M 0.001 212.321 L 127.961 287.958 L 127.961 154.159 Z"/></svg><svg width="256" height="417" x="256" y="0" viewBox="0 0 256 417"><path fill="#343434" stroke-width="1" d="M 127.961 0 L 125.166 9.5 L 125.166 285.168 L 127.961 287.958 L 255.923 212.32 Z"/><path fill="#898989" stroke-width="1" d="M 127.962 0 L 0 212.32 L 127.962 287.959 L 127.962 154.158 Z"/><path fill="#3c3c3b" stroke-width="1" d="M 127.961 312.187 L 126.386 314.107 L 126.386 412.306 L 127.961 416.907 L 255.999 236.587 Z"/><path fill="#898989" stroke-width="1" d="M 127.962 416.905 L 127.962 312.185 L 0 236.585 Z"/><path fill="#141414" stroke-width="1" d="M 127.961 287.958 L 255.921 212.321 L 127.961 154.159 Z"/><path fill="#393939" stroke-width="1" d="M 0.001 212.321 L 127.961 287.958 L 127.961 154.159 Z"/></svg><svg width="256" height="417" x="512" y="0" viewBox="0 0 256 417"><path fill="#343434" stroke-width="1" d="M 127.961 0 L 125.166 9.5 L 125.166 285.168 L 127.961 287.958 L 255.923 212.32 Z"/><path fill="#7e7e7e" stroke-width="1" d="M 127.962 0 L 0 212.32 L 127.962 287.959 L 127.962 154.158 Z"/><path fill="#3c3c3b" stroke-width="1" d="M 127.961 312.187 L 126.386 314.107 L 126.386 412.306 L 127.961 416.907 L 255.999 236.587 Z"/><path fill="#7e7e7e" stroke-width="1" d="M 127.962 416.905 L 127.962 312.185 L 0 236.585 Z"/><path fill="#141414" stroke-width="1" d="M 127.961 287.958 L 255.921 212.321 L 127.961 154.159 Z"/><path fill="#393939" stroke-width="1" d="M 0.001 212.321 L 127.961 287.958 L 127.961 154.159 Z"/></svg><svg width="256" height="417" x="768" y="0" viewBox="0 0 256 417"><path fill="#343434" stroke-width="1" d="M 127.961 0 L 125.166 9.5 L 125.166 285.168 L 127.961 287.958 L 255.923 212.32 Z"/><path fill="#676767" stroke-width="1" d="M 127.962 0 L 0 212.32 L 127.962 287.959 L 127.962 154.158 Z"/><path fill="#3c3c3b" stroke-width="1" d="M 127.961 312.187 L 126.386 314.107 L 126.386 412.306 L 127.961 416.907 L 255.999 236.587 Z"/><path fill="#676767" stroke-width="1" d="M 127.962 416.905 L 127.962 312.185 L 0 236.585 Z"/><path fill="#141414" stroke-width="1" d="M 127.961 287.958 L 255.921 212.321 L 127.961 154.159 Z"/><path fill="#393939" stroke-width="1" d="M 0.001 212.321 L 127.961 287.958 L 127.961 154.159 Z"/></svg><svg width="256" height="417" x="1024" y="0" viewBox="0 0 256 417"><path fill="#343434" stroke-width="1" d="M 127.961 0 L 125.166 9.5 L 125.166 285.168 L 127.961 287.958 L 255.923 212.32 Z"/><path fill="#545454" stroke-width="1" d="M 127.962 0 L 0 212.32 L 127.962 287.959 L 127.962 154.158 Z"/><path fill="#3c3c3b" stroke-width="1" d="M 127.961 312.187 L 126.386 314.107 L 126.386 412.306 L 127.961 416.907 L 255.999 236.587 Z"/><path fill="#545454" stroke-width="1" d="M 127.962 416.905 L 127.962 312.185 L 0 236.585 Z"/><path fill="#141414" stroke-width="1" d="M 127.961 287.958 L 255.921 212.321 L 127.961 154.159 Z"/><path fill="#393939" stroke-width="1" d="M 0.001 212.321 L 127.961 287.958 L 127.961 154.159 Z"/></svg><svg width="256" height="417" x="1280" y="0" viewBox="0 0 256 417"><path fill="#343434" stroke-width="1" d="M 127.961 0 L 125.166 9.5 L 125.166 285.168 L 127.961 287.958 L 255.923 212.32 Z"/><path fill="#494949" stroke-width="1" d="M 127.962 0 L 0 212.32 L 127.962 287.959 L 127.962 154.158 Z"/><path fill="#3c3c3b" stroke-width="1" d="M 127.961 312.187 L 126.386 314.107 L 126.386 412.306 L 127.961 416.907 L 255.999 236.587 Z"/><path fill="#494949" stroke-width="1" d="M 127.962 416.905 L 127.962 312.185 L 0 236.585 Z"/><path fill="#141414" stroke-width="1" d="M 127.961 287.958 L 255.921 212.321 L 127.961 154.159 Z"/><path fill="#393939" stroke-width="1" d="M 0.001 212.321 L 127.961 287.958 L 127.961 154.159 Z"/></svg><svg width="256" height="417" x="1536" y="0" viewBox="0 0 256 417"><path fill="#343434" stroke-width="1" d="M 127.961 0 L 125.166 9.5 L 125.166 285.168 L 127.961 287.958 L 255.923 212.32 Z"/><path fill="#424242" stroke-width="1" d="M 127.962 0 L 0 212.32 L 127.962 287.959 L 127.962 154.158 Z"/><path fill="#3c3c3b" stroke-width="1" d="M 127.961 312.187 L 126.386 314.107 L 126.386 412.306 L 127.961 416.907 L 255.999 236.587 Z"/><path fill="#424242" stroke-width="1" d="M 127.962 416.905 L 127.962 312.185 L 0 236.585 Z"/><path fill="#141414" stroke-width="1" d="M 127.961 287.958 L 255.921 212.321 L 127.961 154.159 Z"/><path fill="#393939" stroke-width="1" d="M 0.001 212.321 L 127.961 287.958 L 127.961 154.159 Z"/></svg><svg width="256" height="417" x="1792" y="0" viewBox="0 0 256 417"><path fill="#343434" stroke-width="1" d="M 127.961 0 L 125.166 9.5 L 125.166 285.168 L 127.961 287.958 L 255.923 212.32 Z"/><path fill="#3e3e3e" stroke-width="1" d="M 127.962 0 L 0 212.32 L 127.962 287.959 L 127.962 154.158 Z"/><path fill="#3c3c3b" stroke-width="1" d="M 127.961 312.187 L 126.386 314.107 L 126.386 412.306 L 127.961 416.907 L 255.999 236.587 Z"/><path fill="#3e3e3e" stroke-width="1" d="M 127.962 416.905 L 127.962 312.185 L 0 236.585 Z"/><path fill="#141414" stroke-width="1" d="M 127.961 287.958 L 255.921 212.321 L 127.961 154.159 Z"/><path fill="#393939" stroke-width="1" d="M 0.001 212.321 L 127.961 287.958 L 127.961 154.159 Z"/></svg><svg width="256" height="417" x="2048" y="0" viewBox="0 0 256 417"><path fill="#343434" stroke-width="1" d="M 127.961 0 L 125.166 9.5 L 125.166 285.168 L 127.961 287.958 L 255.923 212.32 Z"/><path fill="#3d3d3d" stroke-width="1" d="M 127.962 0 L 0 212.32 L 127.962 287.959 L 127.962 154.158 Z"/><path fill="#3c3c3b" stroke-width="1" d="M 127.961 312.187 L 126.386 314.107 L 126.386 412.306 L 127.961 416.907 L 255.999 236.587 Z"/><path fill="#3d3d3d" stroke-width="1" d="M 127.962 416.905 L 127.962 312.185 L 0 236.585 Z"/><path fill="#141414" stroke-width="1" d="M 127.961 287.958 L 255.921 212.321 L 127.961 154.159 Z"/><path fill="#393939" stroke-width="1" d="M 0.001 212.321 L 127.961 287.958 L 127.961 154.159 Z"/></svg><svg width="256" height="417" x="2304" y="0" viewBox="0 0 256 417"><path fill="#343434" stroke-width="1" d="M 127.961 0 L 125.166 9.5 L 125.166 285.168 L 127.961 287.958 L 255.923 212.32 Z"/><path fill="#3c3c3c" stroke-width="1" d="M 127.962 0 L 0 212.32 L 127.962 287.959 L 127.962 154.158 Z"/><path fill="#3c3c3b" stroke-width="1" d="M 127.961 312.187 L 126.386 314.107 L 126.386 412.306 L 127.961 416.907 L 255.999 236.587 Z"/><path fill="#3c3c3c" stroke-width="1" d="M 127.962 416.905 L 127.962 312.185 L 0 236.585 Z"/><path fill="#141414" stroke-width="1" d="M 127.961 287.958 L 255.921 212.321 L 127.961 154.159 Z"/><path fill="#393939" stroke-width="1" d="M 0.001 212.321 L 127.961 287.958 L 127.961 154.159 Z"/></svg><svg width="256" height="417" x="2560" y="0" viewBox="0 0 256 417"><path fill="#333" stroke-width="1" d="M 127.961 0 L 125.166 9.5 L 125.166 285.168 L 127.961 287.958 L 255.923 212.32 Z"/><path fill="#3f3f3f" stroke-width="1" d="M 127.962 0 L 0 212.32 L 127.962 287.959 L 127.962 154.158 Z"/><path fill="#3b3b3a" stroke-width="1" d="M 127.961 312.187 L 126.386 314.107 L 126.386 412.306 L 127.961 416.907 L 255.999 236.587 Z"/><path fill="#3f3f3f" stroke-width="1" d="M 127.962 416.905 L 127.962 312.185 L 0 236.585 Z"/><path fill="#141414" stroke-width="1" d="M 127.961 287.958 L 255.921 212.321 L 127.961 154.159 Z"/><path fill="#393939" stroke-width="1" d="M 0.001 212.321 L 127.961 287.958 L 127.961 154.159 Z"/></svg><svg width="256" height="417" x="2816" y="0" viewBox="0 0 256 417"><path fill="#2e2e2e" stroke-width="1" d="M 127.961 0 L 125.166 9.5 L 125.166 285.168 L 127.961 287.958 L 255.923 212.32 Z"/><path fill="#4b4b4b" stroke-width="1" d="M 127.962 0 L 0 212.32 L 127.962 287.959 L 127.962 154.158 Z"/><path fill="#353534" stroke-width="1" d="M 127.961 312.187 L 126.386 314.107 L 126.386 412.306 L 127.961 416.907 L 255.999 236.587 Z"/><path fill="#4b4b4b" stroke-width="1" d="M 127.962 416.905 L 127.962 312.185 L 0 236.585 Z"/><path fill="#141414" stroke-width="1" d="M 127.961 287.958 L 255.921 212.321 L 127.961 154.159 Z"/><path fill="#393939" stroke-width="1" d="M 0.001 212.321 L 127.961 287.958 L 127.961 154.159 Z"/></svg><svg width="256" height="417" x="3072" y="0" viewBox="0 0 256 417"><path fill="#252525" stroke-width="1" d="M 127.961 0 L 125.166 9.5 L 125.166 285.168 L 127.961 287.958 L 255.923 212.32 Z"/><path fill="#626262" stroke-width="1" d="M 127.962 0 L 0 212.32 L 127.962 287.959 L 127.962 154.158 Z"/><path fill="#292929" stroke-width="1" d="M 127.961 312.187 L 126.386 314.107 L 126.386 412.306 L 127.961 416.907 L 255.999 236.587 Z"/><path fill="#626262" stroke-width="1" d="M 127.962 416.905 L 127.962 312.185 L 0 236.585 Z"/><path fill="#141414" stroke-width="1" d="M 127.961 287.958 L 255.921 212.321 L 127.961 154.159 Z"/><path fill="#393939" stroke-width="1" d="M 0.001 212.321 L 127.961 287.958 L 127.961 154.159 Z"/></svg><svg width="256" height="417" x="3328" y="0" viewBox="0 0 256 417"><path fill="#1e1e1e" stroke-width="1" d="M 127.961 0 L 125.166 9.5 L 125.166 285.168 L 127.961 287.958 L 255.923 212.32 Z"/><path fill="#747474" stroke-width="1" d="M 127.962 0 L 0 212.32 L 127.962 287.959 L 127.962 154.158 Z"/><path fill="#202020" stroke-width="1" d="M 127.961 312.187 L 126.386 314.107 L 126.386 412.306 L 127.961 416.907 L 255.999 236.587 Z"/><path fill="#747474" stroke-width="1" d="M 127.962 416.905 L 127.962 312.185 L 0 236.585 Z"/><path fill="#141414" stroke-width="1" d="M 127.961 287.958 L 255.921 212.321 L 127.961 154.159 Z"/><path fill="#393939" stroke-width="1" d="M 0.001 212.321 L 127.961 287.958 L 127.961 154.159 Z"/></svg><svg width="256" height="417" x="3584" y="0" viewBox="0 0 256 417"><path fill="#191919" stroke-width="1" d="M 127.961 0 L 125.166 9.5 L 125.166 285.168 L 127.961 287.958 L 255.923 212.32 Z"/><path fill="#7f7f7f" stroke-width="1" d="M 127.962 0 L 0 212.32 L 127.962 287.959 L 127.962 154.158 Z"/><path fill="#1a1a1a" stroke-width="1" d="M 127.961 312.187 L 126.386 314.107 L 126.386 412.306 L 127.961 416.907 L 255.999 236.587 Z"/><path fill="#7f7f7f" stroke-width="1" d="M 127.962 416.905 L 127.962 312.185 L 0 236.585 Z"/><path fill="#141414" stroke-width="1" d="M 127.961 287.958 L 255.921 212.321 L 127.961 154.159 Z"/><path fill="#393939" stroke-width="1" d="M 0.001 212.321 L 127.961 287.958 L 127.961 154.159 Z"/></svg><svg width="256" height="417" x="3840" y="0" viewBox="0 0 256 417"><path fill="#161616" stroke-width="1" d="M 127.961 0 L 125.166 9.5 L 125.166 285.168 L 127.961 287.958 L 255.923 212.32 Z"/><path fill="#868686" stroke-width="1" d="M 127.962 0 L 0 212.32 L 127.962 287.959 L 127.962 154.158 Z"/><path fill="#171717" stroke-width="1" d="M 127.961 312.187 L 126.386 314.107 L 126.386 412.306 L 127.961 416.907 L 255.999 236.587 Z"/><path fill="#868686" stroke-width="1" d="M 127.962 416.905 L 127.962 312.185 L 0 236.585 Z"/><path fill="#141414" stroke-width="1" d="M 127.961 287.958 L 255.921 212.321 L 127.961 154.159 Z"/><path fill="#393939" stroke-width="1" d="M 0.001 212.321 L 127.961 287.958 L 127.961 154.159 Z"/></svg><svg width="256" height="417" x="4096" y="0" viewBox="0 0 256 417"><path fill="#151515" stroke-width="1" d="M 127.961 0 L 125.166 9.5 L 125.166 285.168 L 127.961 287.958 L 255.923 212.32 Z"/><path fill="#8a8a8a" stroke-width="1" d="M 127.962 0 L 0 212.32 L 127.962 287.959 L 127.962 154.158 Z"/><path fill="#151515" stroke-width="1" d="M 127.961 312.187 L 126.386 314.107 L 126.386 412.306 L 127.961 416.907 L 255.999 236.587 Z"/><path fill="#8a8a8a" stroke-width="1" d="M 127.962 416.905 L 127.962 312.185 L 0 236.585 Z"/><path fill="#141414" stroke-width="1" d="M 127.961 287.958 L 255.921 212.321 L 127.961 154.159 Z"/><path fill="#393939" stroke-width="1" d="M 0.001 212.321 L 127.961 287.958 L 127.961 154.159 Z"/></svg><svg width="256" height="417" x="4352" y="0" viewBox="0 0 256 417"><path fill="#141414" stroke-width="1" d="M 127.961 0 L 125.166 9.5 L 125.166 285.168 L 127.961 287.958 L 255.923 212.32 Z"/><path fill="#8c8c8c" stroke-width="1" d="M 127.962 0 L 0 212.32 L 127.962 287.959 L 127.962 154.158 Z"/><path fill="#141414" stroke-width="1" d="M 127.961 312.187 L 126.386 314.107 L 126.386 412.306 L 127.961 416.907 L 255.999 236.587 Z"/><path fill="#8c8c8c" stroke-width="1" d="M 127.962 416.905 L 127.962 312.185 L 0 236.585 Z"/><path fill="#141414" stroke-width="1" d="M 127.961 287.958 L 255.921 212.321 L 127.961 154.159 Z"/><path fill="#393939" stroke-width="1" d="M 0.001 212.321 L 127.961 287.958 L 127.961 154.159 Z"/></svg><svg width="256" height="417" x="4608" y="0" viewBox="0 0 256 417"><path fill="#141414" stroke-width="1" d="M 127.961 0 L 125.166 9.5 L 125.166 285.168 L 127.961 287.958 L 255.923 212.32 Z"/><path fill="#8c8c8c" stroke-width="1" d="M 127.962 0 L 0 212.32 L 127.962 287.959 L 127.962 154.158 Z"/><path fill="#141414" stroke-width="1" d="M 127.961 312.187 L 126.386 314.107 L 126.386 412.306 L 127.961 416.907 L 255.999 236.587 Z"/><path fill="#8c8c8c" stroke-width="1" d="M 127.962 416.905 L 127.962 312.185 L 0 236.585 Z"/><path fill="#141414" stroke-width="1" d="M 127.961 287.958 L 255.921 212.321 L 127.961 154.159 Z"/><path fill="#393939" stroke-width="1" d="M 0.001 212.321 L 127.961 287.958 L 127.961 154.159 Z"/></svg><svg width="256" height="417" x="4864" y="0" viewBox="0 0 256 417"><path fill="#151515" stroke-width="1" d="M 127.961 0 L 125.166 9.5 L 125.166 285.168 L 127.961 287.958 L 255.923 212.32 Z"/><path fill="#8c8c8c" stroke-width="1" d="M 127.962 0 L 0 212.32 L 127.962 287.959 L 127.962 154.158 Z"/><path fill="#151515" stroke-width="1" d="M 127.961 312.187 L 126.386 314.107 L 126.386 412.306 L 127.961 416.907 L 255.999 236.587 Z"/><path fill="#8c8c8c" stroke-width="1" d="M 127.962 416.905 L 127.962 312.185 L 0 236.585 Z"/><path fill="#141414" stroke-width="1" d="M 127.961 287.958 L 255.921 212.321 L 127.961 154.159 Z"/><path fill="#393939" stroke-width="1" d="M 0.001 212.321 L 127.961 287.958 L 127.961 154.159 Z"/></svg><svg width="256" height="417" x="5120" y="0" viewBox="0 0 256 417"><path fill="#171717" stroke-width="1" d="M 127.961 0 L 125.166 9.5 L 125.166 285.168 L 127.961 287.958 L 255.923 212.32 Z"/><path fill="#8c8c8c" stroke-width="1" d="M 127.962 0 L 0 212.32 L 127.962 287.959 L 127.962 154.158 Z"/><path fill="#181818" stroke-width="1" d="M 127.961 312.187 L 126.386 314.107 L 126.386 412.306 L 127.961 416.907 L 255.999 236.587 Z"/><path fill="#8c8c8c" stroke-width="1" d="M 127.962 416.905 L 127.962 312.185 L 0 236.585 Z"/><path fill="#141414" stroke-width="1" d="M 127.961 287.958 L 255.921 212.321 L 127.961 154.159 Z"/><path fill="#393939" stroke-width="1" d="M 0.001 212.321 L 127.961 287.958 L 127.961 154.159 Z"/></svg><svg width="256" height="417" x="5376" y="0" viewBox="0 0 256 417"><path fill="#1c1c1c" stroke-width="1" d="M 127.961 0 L 125.166 9.5 L 125.166 285.168 L 127.961 287.958 L 255.923 212.32 Z"/><path fill="#8c8c8c" stroke-width="1" d="M 127.962 0 L 0 212.32 L 127.962 287.959 L 127.962 154.158 Z"/><path fill="#1e1e1e" stroke-width="1" d="M 127.961 312.187 L 126.386 314.107 L 126.386 412.306 L 127.961 416.907 L 255.999 236.587 Z"/><path fill="#8c8c8c" stroke-width="1" d="M 127.962 416.905 L 127.962 312.185 L 0 236.585 Z"/><path fill="#141414" stroke-width="1" d="M 127.961 287.958 L 255.921 212.321 L 127.961 154.159 Z"/><path fill="#393939" stroke-width="1" d="M 0.001 212.321 L 127.961 287.958 L 127.961 154.159 Z"/></svg><svg width="256" height="417" x="5632" y="0" viewBox="0 0 256 417"><path fill="#232323" stroke-width="1" d="M 127.961 0 L 125.166 9.5 L 125.166 285.168 L 127.961 287.958 L 255.923 212.32 Z"/><path fill="#8c8c8c" stroke-width="1" d="M 127.962 0 L 0 212.32 L 127.962 287.959 L 127.962 154.158 Z"/><path fill="#272726" stroke-width="1" d="M 127.961 312.187 L 126.386 314.107 L 126.386 412.306 L 127.961 416.907 L 255.999 236.587 Z"/><path fill="#8c8c8c" stroke-width="1" d="M 127.962 416.905 L 127.962 312.185 L 0 236.585 Z"/><path fill="#141414" stroke-width="1" d="M 127.961 287.958 L 255.921 212.321 L 127.961 154.159 Z"/><path fill="#393939" stroke-width="1" d="M 0.001 212.321 L 127.961 287.958 L 127.961 154.159 Z"/></svg><svg width="256" height="417" x="5888" y="0" viewBox="0 0 256 417"><path fill="#292929" stroke-width="1" d="M 127.961 0 L 125.166 9.5 L 125.166 285.168 L 127.961 287.958 L 255.923 212.32 Z"/><path fill="#8c8c8c" stroke-width="1" d="M 127.962 0 L 0 212.32 L 127.962 287.959 L 127.962 154.158 Z"/><path fill="#2e2e2d" stroke-width="1" d="M 127.961 312.187 L 126.386 314.107 L 126.386 412.306 L 127.961 416.907 L 255.999 236.587 Z"/><path fill="#8c8c8c" stroke-width="1" d="M 127.962 416.905 L 127.962 312.185 L 0 236.585 Z"/><path fill="#141414" stroke-width="1" d="M 127.961 287.958 L 255.921 212.321 L 127.961 154.159 Z"/><path fill="#393939" stroke-width="1" d="M 0.001 212.321 L 127.961 287.958 L 127.961 154.159 Z"/></svg><svg width="256" height="417" x="6144" y="0" viewBox="0 0 256 417"><path fill="#2d2d2d" stroke-width="1" d="M 127.961 0 L 125.166 9.5 L 125.166 285.168 L 127.961 287.958 L 255.923 212.32 Z"/><path fill="#8c8c8c" stroke-width="1" d="M 127.962 0 L 0 212.32 L 127.962 287.959 L 127.962 154.158 Z"/><path fill="#333332" stroke-width="1" d="M 127.961 312.187 L 126.386 314.107 L 126.386 412.306 L 127.961 416.907 L 255.999 236.587 Z"/><path fill="#8c8c8c" stroke-width="1" d="M 127.962 416.905 L 127.962 312.185 L 0 236.585 Z"/><path fill="#141414" stroke-width="1" d="M 127.961 287.958 L 255.921 212.321 L 127.961 154.159 Z"/><path fill="#393939" stroke-width="1" d="M 0.001 212.321 L 127.961 287.958 L 127.961 154.159 Z"/></svg><svg width="256" height="417" x="6400" y="0" viewBox="0 0 256 417"><path fill="#303030" stroke-width="1" d="M 127.961 0 L 125.166 9.5 L 125.166 285.168 L 127.961 287.958 L 255.923 212.32 Z"/><path fill="#8c8c8c" stroke-width="1" d="M 127.962 0 L 0 212.32 L 127.962 287.959 L 127.962 154.158 Z"/><path fill="#373736" stroke-width="1" d="M 127.961 312.187 L 126.386 314.107 L 126.386 412.306 L 127.961 416.907 L 255.999 236.587 Z"/><path fill="#8c8c8c" stroke-width="1" d="M 127.962 416.905 L 127.962 312.185 L 0 236.585 Z"/><path fill="#141414" stroke-width="1" d="M 127.961 287.958 L 255.921 212.321 L 127.961 154.159 Z"/><path fill="#393939" stroke-width="1" d="M 0.001 212.321 L 127.961 287.958 L 127.961 154.159 Z"/></svg><svg width="256" height="417" x="6656" y="0" viewBox="0 0 256 417"><path fill="#313131" stroke-width="1" d="M 127.961 0 L 125.166 9.5 L 125.166 285.168 L 127.961 287.958 L 255.923 212.32 Z"/><path fill="#8c8c8c" stroke-width="1" d="M 127.962 0 L 0 212.32 L 127.962 287.959 L 127.962 154.158 Z"/><path fill="#393938" stroke-width="1" d="M 127.961 312.187 L 126.386 314.107 L 126.386 412.306 L 127.961 416.907 L 255.999 236.587 Z"/><path fill="#8c8c8c" stroke-width="1" d="M 127.962 416.905 L 127.962 312.185 L 0 236.585 Z"/><path fill="#141414" stroke-width="1" d="M 127.961 287.958 L 255.921 212.321 L 127.961 154.159 Z"/><path fill="#393939" stroke-width="1" d="M 0.001 212.321 L 127.961 287.958 L 127.961 154.159 Z"/></svg><svg width="256" height="417" x="6912" y="0" viewBox="0 0 256 417"><path fill="#333" stroke-width="1" d="M 127.961 0 L 125.166 9.5 L 125.166 285.168 L 127.961 287.958 L 255.923 212.32 Z"/><path fill="#8c8c8c" stroke-width="1" d="M 127.962 0 L 0 212.32 L 127.962 287.959 L 127.962 154.158 Z"/><path fill="#3a3a39" stroke-width="1" d="M 127.961 312.187 L 126.386 314.107 L 126.386 412.306 L 127.961 416.907 L 255.999 236.587 Z"/><path fill="#8c8c8c" stroke-width="1" d="M 127.962 416.905 L 127.962 312.185 L 0 236.585 Z"/><path fill="#141414" stroke-width="1" d="M 127.961 287.958 L 255.921 212.321 L 127.961 154.159 Z"/><path fill="#393939" stroke-width="1" d="M 0.001 212.321 L 127.961 287.958 L 127.961 154.159 Z"/></svg><svg width="256" height="417" x="7168" y="0" viewBox="0 0 256 417"><path fill="#333" stroke-width="1" d="M 127.961 0 L 125.166 9.5 L 125.166 285.168 L 127.961 287.958 L 255.923 212.32 Z"/><path fill="#8c8c8c" stroke-width="1" d="M 127.962 0 L 0 212.32 L 127.962 287.959 L 127.962 154.158 Z"/><path fill="#3b3b3a" stroke-width="1" d="M 127.961 312.187 L 126.386 314.107 L 126.386 412.306 L 127.961 416.907 L 255.999 236.587 Z"/><path fill="#8c8c8c" stroke-width="1" d="M 127.962 416.905 L 127.962 312.185 L 0 236.585 Z"/><path fill="#141414" stroke-width="1" d="M 127.961 287.958 L 255.921 212.321 L 127.961 154.159 Z"/><path fill="#393939" stroke-width="1" d="M 0.001 212.321 L 127.961 287.958 L 127.961 154.159 Z"/></svg><svg width="256" height="417" x="7424" y="0" viewBox="0 0 256 417"><path fill="#343434" stroke-width="1" d="M 127.961 0 L 125.166 9.5 L 125.166 285.168 L 127.961 287.958 L 255.923 212.32 Z"/><path fill="#8c8c8c" stroke-width="1" d="M 127.962 0 L 0 212.32 L 127.962 287.959 L 127.962 154.158 Z"/><path fill="#3c3c3b" stroke-width="1" d="M 127.961 312.187 L 126.386 314.107 L 126.386 412.306 L 127.961 416.907 L 255.999 236.587 Z"/><path fill="#8c8c8c" stroke-width="1" d="M 127.962 416.905 L 127.962 312.185 L 0 236.585 Z"/><path fill="#141414" stroke-width="1" d="M 127.961 287.958 L 255.921 212.321 L 127.961 154.159 Z"/><path fill="#393939" stroke-width="1" d="M 0.001 212.321 L 127.961 287.958 L 127.961 154.159 Z"/></svg><svg width="256" height="417" x="7680" y="0" viewBox="0 0 256 417"><path fill="#343434" stroke-width="1" d="M 127.961 0 L 125.166 9.5 L 125.166 285.168 L 127.961 287.958 L 255.923 212.32 Z"/><path fill="#8c8c8c" stroke-width="1" d="M 127.962 0 L 0 212.32 L 127.962 287.959 L 127.962 154.158 Z"/><path fill="#3c3c3b" stroke-width="1" d="M 127.961 312.187 L 126.386 314.107 L 126.386 412.306 L 127.961 416.907 L 255.999 236.587 Z"/><path fill="#8c8c8c" stroke-width="1" d="M 127.962 416.905 L 127.962 312.185 L 0 236.585 Z"/><path fill="#141414" stroke-width="1" d="M 127.961 287.958 L 255.921 212.321 L 127.961 154.159 Z"/><path fill="#393939" stroke-width="1" d="M 0.001 212.321 L 127.961 287.958 L 127.961 154.159 Z"/></svg></svg>